<svg width="421.478516" height="330.046875" viewBox="0 0 421.479 330.047" fill="none" xmlns="http://www.w3.org/2000/svg" xmlns:xlink="http://www.w3.org/1999/xlink">
	<desc>
			Created with Pixso.
	</desc>
	<g opacity="0.600000">
		<path d="M395.589 205.102C392.721 220.169 387.084 234.146 379.294 246.495C357.739 280.649 319.614 302.668 277.231 302.668L195.872 302.668C162.832 302.668 131.308 289.116 108.601 265.282C107.624 264.255 106.659 263.203 105.707 262.139C93.0576 247.886 83.9268 230.939 79.0547 212.704C77.4268 206.63 76.2744 200.405 75.623 194.093C75.6113 193.942 75.5986 193.792 75.5732 193.642C74.4082 182.182 74.083 171.135 74.6719 160.715C75.9863 137.52 81.8359 117.367 93.1455 102.338C106.309 84.8535 126.874 74.3203 156.307 73.9941C157.534 73.9824 158.762 73.9824 160.001 74.0068C241.098 75.2344 238.393 112.207 304.811 128.438C319.99 132.146 338.777 134.776 363.012 135.641C363.563 135.665 364.089 135.69 364.628 135.729C398.657 137.883 402.314 169.77 395.589 205.102L395.589 205.102Z" fill-rule="evenodd" fill="#D8D2F2"/>
	</g>
	<g opacity="0.500000">
		<path d="M364.64 135.716C341.657 147.714 305.762 160.564 262.515 155.88C196.886 148.779 114.273 135.027 74.6709 160.728C75.9863 137.532 81.835 117.38 93.1445 102.351C107.01 99.1318 124.632 99.0059 146.9 104.755C195.145 117.217 257.78 130.818 304.822 128.439C320.002 132.146 338.789 134.776 363.023 135.641C363.575 135.653 364.102 135.678 364.64 135.716L364.64 135.716Z" fill-rule="evenodd" fill="#FFFFFF"/>
	</g>
	<g opacity="0.500000">
		<path d="M395.588 205.114C392.72 220.182 387.084 234.134 379.294 246.482C362.686 251.48 340.58 253.321 311.949 247.071C241.999 231.792 165.286 232.067 108.601 265.282C107.623 264.255 106.659 263.203 105.707 262.139C93.0576 247.886 83.9268 230.939 79.0547 212.704C98.8682 203.323 148.479 185.1 212.429 199.691C279.861 215.084 357.163 227.32 395.588 205.114L395.588 205.114Z" fill-rule="evenodd" fill="#FFFFFF"/>
	</g>
	<g opacity="0.600000">
		<path d="M0 32.4014C0 33.9795 0.638672 35.4199 1.69043 36.459C2.73047 37.5107 4.1582 38.1494 5.73633 38.1494L128.627 38.1494C131.783 38.1494 134.363 35.5693 134.363 32.4014C134.363 30.8232 133.725 29.3828 132.673 28.3428C131.633 27.291 130.205 26.6523 128.627 26.6523L122.815 26.6523C120.523 21.3164 115.226 17.5967 109.052 17.5967C104.906 17.5967 101.148 19.2881 98.4307 22.0186C94.8105 15.8809 88.1357 11.748 80.4824 11.748C78.3789 11.748 76.3623 12.0615 74.4463 12.6377C70.4512 5.12207 62.5479 0 53.4297 0C42.4834 0 33.29 7.38965 30.5098 17.4346C28.4932 16.4326 26.2139 15.8438 23.8096 15.8438C16.9834 15.8438 11.2344 20.4023 9.41895 26.6396L5.72363 26.6396C2.58008 26.6523 0 29.2324 0 32.4014L0 32.4014Z" fill-rule="evenodd" fill="#E4EDFF"/>
	</g>
	<g opacity="0.600000">
		<path d="M261.237 59.1533C261.237 60.1797 260.823 61.1074 260.135 61.7832C259.458 62.46 258.531 62.8857 257.505 62.8857L177.823 62.8857C175.782 62.8857 174.104 61.207 174.104 59.1533C174.104 58.126 174.517 57.1992 175.206 56.5234C175.882 55.8467 176.809 55.4209 177.836 55.4209L181.605 55.4209C183.096 51.9639 186.528 49.5469 190.523 49.5469C193.216 49.5469 195.646 50.6494 197.412 52.415C199.754 48.4316 204.087 45.7646 209.047 45.7646C210.412 45.7646 211.728 45.9648 212.955 46.3408C215.547 41.4688 220.67 38.1494 226.581 38.1494C233.67 38.1494 239.645 42.9336 241.448 49.459C242.751 48.8076 244.229 48.4316 245.794 48.4316C250.215 48.4316 253.947 51.3877 255.125 55.4336L257.529 55.4336C259.559 55.4209 261.237 57.0986 261.237 59.1533L261.237 59.1533Z" fill-rule="evenodd" fill="#E4EDFF"/>
	</g>
	<path d="M347.92 91.917L348.935 86.7451L344.088 85.793C344.088 84.5156 343.862 83.2383 343.448 82.0107L347.444 79.3301L344.501 74.959L340.681 77.5264C339.541 76.374 338.201 75.4854 336.761 74.8838L337.712 70.0371L332.54 69.0225L331.562 74.0195C330.498 74.082 329.446 74.2832 328.419 74.6338L325.739 70.6377L321.368 73.5811L323.936 77.4014C322.783 78.541 321.894 79.8809 321.293 81.3213L317.06 80.4824L316.045 85.6553L320.429 86.5195C320.504 87.8721 320.805 89.2246 321.355 90.502L317.535 93.0693L320.479 97.4404L324.474 94.7607C325.613 95.7627 326.929 96.5137 328.319 97.002L327.367 101.874L332.54 102.889L333.579 97.6035C334.719 97.4785 335.847 97.1904 336.924 96.7266L339.491 100.547L343.862 97.6035L341.182 93.6084C341.896 92.7939 342.484 91.8926 342.936 90.9277L347.92 91.917M334.932 89.8379C332.728 91.3291 329.722 90.7275 328.231 88.5234C326.741 86.3193 327.342 83.3125 329.546 81.8223C331.751 80.332 334.757 80.9336 336.247 83.1377C337.737 85.3545 337.148 88.3604 334.932 89.8379L334.932 89.8379Z" fill-rule="evenodd" fill="#7C7C7C"/>
	<path d="M78.04 107.573L79.0547 102.401L74.208 101.449C74.208 100.172 73.9824 98.8945 73.5684 97.667L77.5645 94.9863L74.6211 90.6152L70.8008 93.1826C69.6611 92.0303 68.3213 91.1416 66.8809 90.54L67.833 85.6934L62.6602 84.6787L61.6826 89.6758C60.6182 89.7383 59.5664 89.9395 58.5391 90.29L55.8594 86.2939L51.4883 89.2373L54.0557 93.0576C52.9033 94.1973 52.0137 95.5371 51.4131 96.9775L47.1797 96.1514L46.165 101.324L50.5488 102.188C50.624 103.541 50.9248 104.894 51.4756 106.171L47.6553 108.738L50.5986 113.109L54.5938 110.43C55.7334 111.432 57.0488 112.183 58.4395 112.671L57.4873 117.543L62.6602 118.558L63.6992 113.272C64.8389 113.147 65.9668 112.859 67.0439 112.396L69.6113 116.216L73.9824 113.272L71.3018 109.277C72.0156 108.463 72.6045 107.562 73.0557 106.597L78.04 107.573M65.0518 105.507C62.8477 106.997 59.8418 106.396 58.3516 104.192C56.8613 101.987 57.4619 98.9814 59.667 97.4912C61.8711 96.001 64.877 96.6025 66.3672 98.8066C67.8574 101.023 67.2568 104.029 65.0518 105.507L65.0518 105.507Z" fill-rule="evenodd" fill="#7C7C7C"/>
	<path d="M374.497 67.0439L375.048 64.2129L372.405 63.6992C372.405 62.998 372.28 62.3096 372.055 61.6328L374.233 60.168L372.631 57.7754L370.539 59.1777C369.913 58.5518 369.187 58.0635 368.397 57.7373L368.924 55.0947L366.093 54.5439L365.555 57.2744C364.979 57.3115 364.402 57.4121 363.839 57.6123L362.373 55.4336L359.98 57.0361L361.384 59.1279C360.758 59.7539 360.269 60.4805 359.943 61.2695L357.626 60.8184L357.075 63.6494L359.468 64.125C359.505 64.8643 359.681 65.6035 359.98 66.3047L357.89 67.707L359.492 70.0996L361.672 68.6338C362.298 69.1855 363.012 69.5859 363.775 69.8613L363.25 72.5293L366.08 73.0801L366.644 70.1875C367.271 70.124 367.884 69.9619 368.473 69.6982L369.875 71.79L372.268 70.1875L370.802 68.0078C371.19 67.5566 371.516 67.0684 371.767 66.543L374.497 67.0439M367.408 65.9033C366.206 66.7178 364.553 66.3926 363.751 65.1895C362.937 63.9873 363.263 62.334 364.465 61.5322C365.667 60.7188 367.32 61.0439 368.122 62.2461C368.936 63.4492 368.61 65.1025 367.408 65.9033L367.408 65.9033Z" fill-rule="evenodd" fill="#7C7C7C"/>
	<path d="M61.1201 144.271L61.6709 141.439L59.0283 140.926C59.0283 140.225 58.9033 139.536 58.6777 138.859L60.8564 137.395L59.2539 135.002L57.1621 136.404C56.5361 135.778 55.8096 135.29 55.0205 134.964L55.5469 132.321L52.7158 131.771L52.1777 134.501C51.6016 134.538 51.0254 134.639 50.4619 134.839L48.9961 132.66L46.6035 134.263L48.0068 136.354C47.3809 136.98 46.8916 137.707 46.5664 138.496L44.249 138.045L43.6982 140.876L46.0908 141.352C46.1279 142.091 46.291 142.83 46.6035 143.531L44.5127 144.934L46.1152 147.326L48.2949 145.86C48.9209 146.412 49.6348 146.812 50.3984 147.088L49.873 149.756L52.7031 150.307L53.2666 147.414C53.8936 147.352 54.5068 147.188 55.0957 146.925L56.498 149.017L58.8906 147.414L57.4248 145.234C57.8135 144.783 58.1387 144.295 58.3896 143.77L61.1201 144.271M54.0186 143.143C52.8164 143.957 51.1631 143.631 50.3613 142.429C49.5469 141.227 49.873 139.573 51.0752 138.771C52.2773 137.958 53.9307 138.283 54.7324 139.485C55.5469 140.688 55.2334 142.329 54.0186 143.143L54.0186 143.143Z" fill-rule="evenodd" fill="#7C7C7C"/>
	<g opacity="0.600000">
		<path d="M287.226 41.8818C287.226 43.3848 287.839 44.7627 288.841 45.752C289.831 46.7539 291.208 47.3672 292.711 47.3672L410.054 47.3672C413.072 47.3672 415.54 44.9004 415.54 41.8818C415.54 40.3789 414.926 39.001 413.924 38.0117C412.935 37.0098 411.557 36.3965 410.054 36.3965L404.506 36.3965C402.313 31.3115 397.254 27.7412 391.367 27.7412C387.409 27.7412 383.815 29.3574 381.223 31.9619C377.766 26.1006 371.391 22.1553 364.089 22.1553C362.085 22.1553 360.156 22.4561 358.327 23.0068C354.508 15.8311 346.968 10.9336 338.264 10.9336C327.817 10.9336 319.025 17.9854 316.37 27.5908C314.441 26.627 312.274 26.0762 309.971 26.0762C303.457 26.0762 297.959 30.4219 296.23 36.3838L292.699 36.3838C289.693 36.3965 287.226 38.8633 287.226 41.8818L287.226 41.8818Z" fill-rule="evenodd" fill="#E4EDFF"/>
	</g>
	<g opacity="0.600000">
		<path d="M415.577 319.05C415.577 325.125 329.133 330.047 222.485 330.047C115.852 330.047 29.3945 325.125 29.3945 319.05C29.3945 312.976 115.839 308.054 222.485 308.054C329.133 308.054 415.577 312.976 415.577 319.05L415.577 319.05Z" fill-rule="evenodd" fill="#D8D2F2"/>
	</g>
	<path d="M402.188 318.562L387.197 318.562C385.155 318.562 383.352 316.621 382.726 313.753L376.363 284.847C376.1 283.669 376.664 282.429 377.503 282.342C389.088 281.014 400.548 281.014 411.896 282.342C412.734 282.441 413.285 283.669 413.035 284.847L406.673 313.753C406.033 316.621 404.218 318.562 402.188 318.562L402.188 318.562Z" fill-rule="evenodd" fill="#656565"/>
	<ellipse cx="394.787109" cy="284.445312" rx="16.908161" ry="1.390227" fill="#2E3062"/>
	<path d="M418.608 245.369C411.043 243.378 399.496 259.071 395.989 274.363L395.989 252.069C397.755 248.938 401.111 244.242 407.224 239.27C416.717 231.542 425.459 221.622 417.882 219.618C410.78 217.752 400.172 231.467 395.989 245.808L395.989 217.188C397.216 215.285 399.22 212.793 402.414 210.188C408.4 205.315 413.899 199.065 409.127 197.801C404.981 196.711 398.944 204.038 395.977 212.316L395.977 203.036C396.465 200.168 397.153 196.072 399.058 191.877C403.453 182.17 405.833 172.163 400.034 172.902C394.223 173.641 390.466 190.938 393.634 204.213L393.634 208.985C391.492 199.266 384.128 189.209 379.331 190.474C374.56 191.727 380.07 197.988 386.044 202.86C390.604 206.568 392.732 210.037 393.634 211.903L393.634 234.447C390.189 219.067 378.567 203.199 370.965 205.203C363.388 207.194 372.13 217.113 381.623 224.854C388.8 230.69 392.182 236.176 393.634 239.145L393.634 266.185C389.952 251.093 378.617 235.863 371.165 237.816C363.588 239.808 370.088 247.06 380.759 255.827C388.011 261.789 391.894 268.076 393.634 271.495L393.634 284.232C394.485 284.471 395.274 284.471 395.977 284.232L395.977 279.16C397.454 276.154 400.849 270.744 407.938 264.97C417.443 257.292 426.173 247.373 418.608 245.369L418.608 245.369Z" fill-rule="evenodd" fill="#E89D03"/>
	<path d="M54.1426 317.334L57.0361 317.334L46.3398 289.542C46.8662 286.987 47.9932 283.48 50.3604 279.348C54.7822 271.619 58.1133 262.614 52.4521 263.24C47.543 263.779 44.0732 274.175 44.3115 284.307L40.4658 274.325C39.8027 271.031 38.8506 266.334 39.1641 261.036C39.8779 248.762 38.2871 237.014 32.3506 240.221C26.4141 243.427 29.5195 263.591 38.4375 276.566L40.416 281.702C34.0791 272.133 21.9922 264.355 17.3457 267.712C12.7363 271.043 21.2539 275.489 29.708 278.258C36.1455 280.361 39.8779 283.218 41.6182 284.846L50.9619 309.105C40.8916 293.988 21.792 281.727 14.4531 287.024C7.12598 292.311 20.6396 299.361 34.0664 303.758C44.2109 307.076 50.123 311.561 52.916 314.165L54.1426 317.334Z" fill-rule="evenodd" fill="#FE9332"/>
	<path d="M359.943 146.574C359.943 146.574 369.763 160.577 374.51 170.709C382.876 181.418 382.7 187.843 389.952 195.545L386.007 199.189L371.416 179.251C370.627 177.948 369.312 176.32 368.46 174.83L360.281 160.577L359.943 146.574Z" fill-rule="evenodd" fill="#5C17B2"/>
	<path d="M349.535 239.307C349.548 244.179 349.623 248.574 349.735 252.57C350.612 283.143 354.007 297.145 355.572 313.803C357.338 314.579 359.593 313.665 361.096 312.751L361.358 254.925L361.597 239.294L349.535 239.307Z" fill-rule="evenodd" fill="#FDA893"/>
	<path d="M349.535 239.307C349.548 244.179 349.623 248.574 349.735 252.57C351.001 252.106 352.44 251.844 354.382 252.532C357.639 253.71 358.503 254.912 361.358 254.925L361.597 239.294L349.535 239.307Z" fill-rule="evenodd" fill="#FD896B"/>
	<path d="M359.83 312.513C359.83 312.513 360.944 310.947 361.859 310.997C362.773 311.047 369.912 316.471 372.329 316.884C374.747 317.297 374.321 319.075 373.896 319.99C373.47 320.904 354.695 320.065 354.695 320.065C354.695 320.065 354.057 314.491 354.633 312.775C355.196 311.047 357.951 312.964 359.83 312.513L359.83 312.513Z" fill-rule="evenodd" fill="#7742CA"/>
	<path d="M330.636 236.952L330.849 250.667L331.813 312.5L336.51 312.751C338.176 294.966 342.422 285.134 343.373 252.758C343.511 248.036 343.599 242.813 343.611 236.952L330.636 236.952Z" fill-rule="evenodd" fill="#FDA893"/>
	<path d="M330.636 236.952L330.849 250.667C332.326 250.592 334.218 250.704 336.209 251.431C338.989 252.445 341.395 252.796 343.386 252.758C343.523 248.036 343.611 242.813 343.624 236.952L330.636 236.952Z" fill-rule="evenodd" fill="#FD896B"/>
	<path d="M334.73 312.049C334.73 312.049 332.301 311.348 331.625 311.348C330.948 311.348 326.327 316.332 324.799 316.596C322.019 317.084 321.943 321.405 323.621 321.643C328.481 322.356 336.848 320.453 336.848 320.453C336.848 320.453 337.725 314.93 337.424 313.176C337.098 311.448 336.071 312.575 334.73 312.049L334.73 312.049Z" fill-rule="evenodd" fill="#7742CA"/>
	<path d="M322.857 245.418C322.857 245.418 322.92 245.644 323.096 245.981C323.709 247.172 325.738 249.689 331.487 247.998C331.675 247.948 331.85 247.898 332.025 247.848C333.228 247.548 334.205 247.522 335.094 247.623C338.438 248.023 340.379 250.391 347.205 248.249C353.354 246.32 354.958 248.023 357.813 248.95C358.377 249.138 358.991 249.288 359.692 249.376C360.03 249.414 360.368 249.438 360.707 249.426C363.387 249.363 365.967 247.798 367.508 246.633C368.422 245.944 368.973 245.406 368.973 245.406C368.835 244.854 368.71 244.266 368.572 243.64C368.059 241.223 367.532 238.305 367.02 235.11C366.856 234.159 366.706 233.169 366.556 232.167C366.18 229.737 365.816 227.22 365.466 224.703C365.315 223.663 365.165 222.573 365.027 221.534C365.016 221.483 365.016 221.434 365.003 221.384C364.552 218.052 364.139 214.809 363.775 211.865C363.638 210.737 363.5 209.661 363.387 208.646C362.711 203.035 362.285 199.165 362.285 199.165L345.915 199.829L331.036 199.215C331.036 199.215 330.021 201.094 329.658 204.25C329.546 205.239 329.145 206.667 329.007 207.857C328.631 211.014 327.768 214.495 327.229 218.516C327.091 219.567 326.94 220.632 326.803 221.696C325.775 229.212 324.599 237.077 323.459 242.638C323.258 243.665 323.058 244.592 322.857 245.418L322.857 245.418Z" fill-rule="evenodd" fill="#2E3062"/>
	<path d="M360.594 174.066L364.014 207.958C350.161 214.069 328.269 207.958 328.269 207.958L333.992 178.65L327.241 151.659L332.101 149.218L333.078 148.717L335.207 147.64L336.76 146.862L341.945 144.245L351.276 145.46L354.507 145.873L357.375 146.249L358.49 146.387L359.918 146.574L360.281 161.817C361.283 163.996 362.122 166.426 362.172 168.58C362.223 170.497 361.584 171.987 360.732 173.114C360.682 173.177 360.606 173.265 360.557 173.327L360.594 174.066Z" fill-rule="evenodd" fill="#7742CA"/>
	<path d="M351.301 145.46C350.425 147.965 348.783 150.007 345.289 150.382C341.545 150.783 338.563 149.242 336.785 146.875L341.971 144.258L351.301 145.46Z" fill-rule="evenodd" fill="#FDA893"/>
	<path d="M360.582 173.314L360.594 174.004C358.603 174.73 355.083 175.845 350.662 176.333C348.22 176.597 345.515 176.684 342.634 176.434C342.408 176.408 342.233 176.221 342.258 175.982C342.283 175.757 342.483 175.582 342.709 175.606C351.038 176.333 357.951 174.179 360.732 173.127C360.682 173.202 360.632 173.265 360.582 173.314L360.582 173.314Z" fill-rule="evenodd" fill="#5C17B2"/>
	<path d="M344.538 115.739C344.538 115.739 344.877 108.6 340.53 107.223C333.768 105.081 331.889 108.6 330.85 110.917C329.509 113.886 330.085 119.709 334.118 120.272C340.13 121.112 344.163 117.743 344.538 115.739L344.538 115.739Z" fill-rule="evenodd" fill="#18315B"/>
	<path d="M348.896 139.611C352.416 139.611 355.446 137.144 356.16 133.712C356.674 131.232 357.188 129.04 357.188 127.812C357.226 127.425 357.237 126.999 357.237 126.61C357.288 120.975 353.806 110.691 341.595 112.32C341.595 112.32 331.462 113.473 330.31 123.379C330.31 123.379 329.834 127.951 329.509 131.257C329.509 131.32 329.496 131.37 329.496 131.433C329.045 135.804 332.489 139.599 336.886 139.599L348.896 139.611Z" fill-rule="evenodd" fill="#18315B"/>
	<path d="M353.043 128.464C353.043 128.464 354.783 126.247 356.086 128.075C357.389 129.904 355.548 135.302 352.366 133.987L353.043 128.464Z" fill-rule="evenodd" fill="#FD896B"/>
	<path d="M353.055 132.322C353.168 132.322 353.28 132.247 353.317 132.135C353.807 130.469 355.622 129.792 355.647 129.779C355.785 129.729 355.86 129.579 355.798 129.454C355.748 129.329 355.585 129.254 355.447 129.304C355.359 129.329 353.355 130.067 352.792 131.996C352.754 132.135 352.904 132.284 353.055 132.322L353.055 132.322Z" fill-rule="evenodd" fill="#D65C48"/>
	<path d="M354.896 131.482C354.945 131.482 354.996 131.47 355.046 131.444C355.171 131.369 355.209 131.207 355.121 131.094C355.108 131.069 354.783 130.605 354.119 130.317C353.981 130.255 353.831 130.317 353.769 130.442C353.706 130.568 353.769 130.719 353.906 130.781C354.433 131.007 354.683 131.357 354.683 131.369C354.721 131.444 354.808 131.482 354.896 131.482L354.896 131.482Z" fill-rule="evenodd" fill="#D65C48"/>
	<path d="M352.253 133.95C351.952 134.288 351.765 134.727 351.765 135.202C351.765 136.242 352.616 137.094 353.656 137.094C354.695 137.094 355.547 136.242 355.547 135.202C355.547 134.602 355.271 134.062 354.833 133.725C354.607 133.549 354.357 133.424 354.069 133.361C354.019 133.236 354.044 133.11 354.132 132.998C354.495 133.073 354.82 133.236 355.096 133.474C355.597 133.888 355.91 134.514 355.91 135.202C355.91 136.442 354.896 137.457 353.656 137.457C352.416 137.457 351.401 136.442 351.401 135.202C351.401 134.664 351.589 134.176 351.902 133.787C352.027 133.85 352.141 133.899 352.253 133.95L352.253 133.95Z" fill-rule="evenodd" fill="#FFFFFF"/>
	<path d="M339.591 139.762L339.591 146.387C339.591 146.387 342.672 148.767 345.076 148.967C347.481 149.18 348.308 146.35 348.308 146.35L348.308 140.188L339.591 139.762Z" fill-rule="evenodd" fill="#FDA893"/>
	<path d="M339.591 140.4L339.591 143.043C341.206 144.834 344.062 145.46 348.295 144.834L348.295 140.813L339.591 140.4Z" fill-rule="evenodd" fill="#FD896B"/>
	<path d="M354.081 130.981C354.006 131.62 353.918 132.271 353.793 132.923C353.029 137.231 350.312 141.878 346.867 142.667C339.44 144.358 336.359 138.521 335.169 134.213C335.044 133.737 335.282 133.187 335.182 132.622C334.932 131.282 334.393 129.754 334.268 128.251C334.18 127.212 334.117 126.185 334.079 125.258C333.954 122.641 335.47 120.235 337.85 119.296C341.269 117.943 346.454 116.866 351.363 119.747C353.18 120.812 354.319 122.778 354.356 124.933C354.395 126.573 354.344 128.728 354.081 130.981L354.081 130.981Z" fill-rule="evenodd" fill="#FDA893"/>
	<path d="M344.663 134.313C344.525 134.313 344.4 134.213 344.375 134.075C344.35 133.912 344.45 133.774 344.613 133.737L345.603 133.574L344.237 129.942C344.188 129.792 344.263 129.629 344.4 129.566C344.551 129.517 344.713 129.592 344.775 129.729L346.392 134.025L344.663 134.313Z" fill-rule="evenodd" fill="#FD896B"/>
	<path d="M348.221 129.504C348.221 130.143 348.546 130.656 348.947 130.656C349.348 130.656 349.674 130.143 349.674 129.504C349.674 128.865 349.348 128.352 348.947 128.352C348.546 128.352 348.221 128.865 348.221 129.504L348.221 129.504Z" fill-rule="evenodd" fill="#18315B"/>
	<path d="M340.129 129.504C340.129 130.143 340.454 130.656 340.855 130.656C341.256 130.656 341.582 130.143 341.582 129.504C341.582 128.865 341.256 128.352 340.855 128.352C340.454 128.352 340.129 128.865 340.129 129.504L340.129 129.504Z" fill-rule="evenodd" fill="#18315B"/>
	<path d="M351.101 126.485C350.512 126.373 349.322 126.186 348.058 126.223C347.719 126.235 347.456 126.485 347.506 126.749C347.544 126.962 347.77 127.112 348.032 127.1C348.896 127.037 351.15 127.049 352.203 127.362C352.228 127.212 352.128 127.049 351.978 126.911C351.765 126.687 351.451 126.548 351.101 126.485L351.101 126.485Z" fill-rule="evenodd" fill="#18315B"/>
	<path d="M339.34 126.623C339.929 126.498 341.118 126.298 342.384 126.322C342.722 126.335 342.984 126.573 342.947 126.849C342.909 127.062 342.684 127.225 342.421 127.199C341.557 127.149 339.303 127.187 338.25 127.513C338.226 127.362 338.312 127.199 338.463 127.049C338.676 126.836 339.002 126.698 339.34 126.623L339.34 126.623Z" fill-rule="evenodd" fill="#18315B"/>
	<path d="M348.221 136.029C348.008 137.044 347.293 138.897 344.901 138.897C342.496 138.897 341.833 137.194 341.595 136.029L348.221 136.029Z" fill-rule="evenodd" fill="#FFFFFF"/>
	<path d="M344.938 140.638C345.628 140.638 346.241 140.262 346.267 140.25C346.404 140.162 346.441 139.999 346.354 139.861C346.267 139.724 346.104 139.687 345.966 139.773C345.966 139.773 345.465 140.074 344.938 140.074C344.362 140.074 343.861 139.773 343.85 139.773C343.711 139.698 343.536 139.736 343.461 139.874C343.386 140.012 343.423 140.188 343.562 140.262C343.586 140.274 344.2 140.638 344.938 140.638L344.938 140.638Z" fill-rule="evenodd" fill="#FD896B"/>
	<path d="M354.382 130.305C354.307 130.368 354.244 130.343 354.182 130.229C353.205 128.502 354.119 125.045 351.214 123.729C348.997 122.715 348.208 120.648 348.208 120.648C347.707 121.513 346.379 122.302 346.379 122.302C346.379 122.302 343.035 124.281 339.565 125.621C338.539 126.021 337.8 126.423 337.286 126.773C337.286 126.773 336.385 128.352 337.086 130.769C337.787 133.198 336.886 137.193 335.32 138.12C335.345 138.058 336.522 135.29 335.858 133.022C335.482 131.732 335.482 129.666 335.119 128.438C334.719 128.163 333.792 127.7 333.479 127.512C333.391 126.447 333.328 125.408 333.278 124.456C333.153 121.788 334.744 119.334 337.249 118.382C340.843 117.004 346.316 115.901 351.489 118.833C353.405 119.922 354.607 121.926 354.646 124.118C354.708 125.809 354.67 128.001 354.382 130.305L354.382 130.305Z" fill-rule="evenodd" fill="#18315B"/>
	<path d="M335.145 128.438C335.145 128.438 333.116 125.972 331.913 127.75C330.711 129.528 332.489 134.964 335.42 133.687L335.145 128.438Z" fill-rule="evenodd" fill="#FDA893"/>
	<path d="M335.22 133.787C335.433 134.188 335.508 134.651 335.383 135.127C335.132 136.142 334.104 136.756 333.091 136.505C332.076 136.255 331.462 135.228 331.713 134.213C331.863 133.624 332.264 133.174 332.765 132.948C333.016 132.835 333.304 132.772 333.592 132.785C333.642 132.673 333.667 132.56 333.616 132.422C333.24 132.409 332.89 132.497 332.564 132.647C331.988 132.923 331.524 133.449 331.362 134.125C331.062 135.328 331.801 136.556 333.003 136.855C334.205 137.156 335.433 136.417 335.733 135.215C335.858 134.689 335.796 134.176 335.583 133.725C335.47 133.737 335.345 133.763 335.22 133.787L335.22 133.787Z" fill-rule="evenodd" fill="#FFFFFF"/>
	<path d="M334.706 131.871C334.594 131.871 334.493 131.796 334.469 131.695C334.018 130.08 332.339 129.416 332.314 129.416C332.189 129.366 332.126 129.229 332.177 129.091C332.227 128.966 332.364 128.902 332.489 128.953C332.564 128.978 334.418 129.704 334.944 131.558C334.982 131.695 334.844 131.834 334.706 131.871L334.706 131.871Z" fill-rule="evenodd" fill="#FD896B"/>
	<path d="M333.016 131.057C332.966 131.057 332.928 131.044 332.878 131.019C332.766 130.943 332.728 130.794 332.803 130.681C332.815 130.656 333.116 130.205 333.729 129.93C333.854 129.879 334.005 129.93 334.056 130.055C334.105 130.18 334.056 130.33 333.93 130.38C333.454 130.593 333.216 130.943 333.216 130.943C333.179 131.019 333.091 131.057 333.016 131.057L333.016 131.057Z" fill-rule="evenodd" fill="#FD896B"/>
	<path d="M386.445 175.744C393.208 192.94 384.742 212.366 367.533 219.129C365.179 220.056 362.786 220.694 360.394 221.058C357.388 221.521 354.37 221.571 351.414 221.221C348.783 220.907 346.204 220.294 343.736 219.38C342.984 219.104 342.233 218.804 341.507 218.465C338.288 217.013 335.308 215.059 332.677 212.654C332.164 212.19 331.663 211.702 331.174 211.201C328.206 208.133 325.789 204.438 324.136 200.217C323.985 199.829 323.835 199.44 323.71 199.052C317.761 182.156 326.239 163.445 343.048 156.832C347.181 155.204 351.451 154.465 355.635 154.502C356.449 154.515 357.25 154.553 358.052 154.615C361.559 154.903 364.966 155.755 368.172 157.095C368.873 157.396 369.574 157.709 370.264 158.047C372.706 159.262 374.998 160.777 377.077 162.568C379.23 164.409 381.16 166.538 382.812 168.931C384.016 170.684 385.067 172.562 385.944 174.579C386.132 174.98 386.295 175.368 386.445 175.744L386.445 175.744Z" fill-rule="evenodd" fill="#FFCE4F"/>
	<g opacity="0.300000">
		<path d="M382.826 168.956L360.395 221.059C357.389 221.521 354.37 221.571 351.414 221.221L377.09 162.581C379.244 164.435 381.185 166.563 382.826 168.956L382.826 168.956Z" fill-rule="evenodd" fill="#FFFFFF"/>
	</g>
	<g opacity="0.300000">
		<path d="M358.064 154.628L332.689 212.666C332.176 212.203 331.675 211.715 331.187 211.214L355.646 154.527C356.461 154.527 357.263 154.564 358.064 154.628L358.064 154.628Z" fill-rule="evenodd" fill="#FFFFFF"/>
	</g>
	<g opacity="0.300000">
		<path d="M370.276 158.06L343.749 219.392C342.997 219.116 342.246 218.816 341.52 218.478L368.197 157.107C368.898 157.408 369.6 157.721 370.276 158.06L370.276 158.06Z" fill-rule="evenodd" fill="#FFFFFF"/>
	</g>
	<path d="M380.195 178.212C380.346 178.587 380.483 178.976 380.621 179.363C385.205 192.803 378.43 207.645 365.078 212.88C351.739 218.127 336.66 211.865 330.874 198.902C330.711 198.526 330.548 198.15 330.397 197.774C325 184.048 331.788 168.492 345.515 163.106C359.242 157.696 374.798 164.484 380.195 178.212L380.195 178.212Z" fill-rule="evenodd" fill="#FA8A00"/>
	<path d="M380.621 179.363C385.205 192.803 378.43 207.644 365.078 212.879C364.777 212.992 364.477 213.104 364.177 213.218C361.158 214.282 358.064 214.771 355.021 214.733C351.978 214.695 348.984 214.145 346.166 213.117C345.452 212.854 344.751 212.566 344.05 212.253C340.906 210.788 338.025 208.733 335.633 206.129C335.057 205.515 334.506 204.851 333.992 204.175C332.765 202.571 331.726 200.806 330.861 198.902C326.277 185.463 333.053 170.621 346.392 165.374C348.082 164.71 349.798 164.233 351.526 163.934C352.403 163.783 353.28 163.67 354.169 163.607C357.764 163.332 361.333 163.808 364.678 164.936C365.404 165.173 366.105 165.449 366.807 165.762C369.524 166.939 372.055 168.567 374.259 170.584C376.413 172.55 378.267 174.905 379.707 177.572C380.045 178.136 380.346 178.737 380.621 179.363L380.621 179.363Z" fill-rule="evenodd" fill="#FFAC00"/>
	<g opacity="0.200000">
		<path d="M379.72 177.548L364.177 213.206C361.158 214.271 358.064 214.759 355.021 214.721L374.271 170.56C376.438 172.538 378.279 174.881 379.72 177.548L379.72 177.548Z" fill-rule="evenodd" fill="#FFFFFF"/>
	</g>
	<g opacity="0.200000">
		<path d="M354.182 163.596L335.646 206.129C335.069 205.516 334.519 204.852 334.005 204.176L351.539 163.934C352.416 163.771 353.305 163.658 354.182 163.596L354.182 163.596Z" fill-rule="evenodd" fill="#FFFFFF"/>
	</g>
	<g opacity="0.200000">
		<path d="M366.819 165.737L346.166 213.105C345.452 212.843 344.751 212.555 344.05 212.241L364.678 164.911C365.404 165.162 366.118 165.438 366.819 165.737L366.819 165.737Z" fill-rule="evenodd" fill="#FFFFFF"/>
	</g>
	<path d="M364.313 200.756L365.942 204.889L360.694 206.955L359.142 203.01C355.334 204.25 351.313 204.663 348.546 204.162L348.858 196.635C351.89 197.123 355.534 196.76 358.402 195.633C360.895 194.656 361.584 193.779 361.232 192.89C359.942 189.608 346.566 197.925 342.747 188.193C341.094 183.985 342.759 179.238 348.533 175.981L346.942 171.924L352.19 169.857L353.756 173.84C356.611 173.014 359.58 172.676 362.172 173.026L362.034 180.44C358.953 180.152 356.285 180.466 354.006 181.354C351.438 182.369 350.913 183.434 351.264 184.323C352.49 187.454 365.892 179.176 369.662 188.795C371.215 192.827 369.687 197.474 364.313 200.756L364.313 200.756Z" fill-rule="evenodd" fill="#FA8A00"/>
	<path d="M363.612 199.441L365.241 203.574L359.993 205.641L358.44 201.695C354.62 202.936 350.612 203.349 347.845 202.848L348.157 195.32C351.188 195.809 354.833 195.445 357.701 194.318C360.193 193.342 360.883 192.465 360.531 191.575C359.241 188.294 345.865 196.61 342.045 186.879C340.393 182.671 342.058 177.924 347.832 174.668L346.241 170.609L351.489 168.543L353.055 172.525C355.91 171.699 358.879 171.361 361.471 171.712L361.333 179.126C358.252 178.838 355.585 179.151 353.305 180.04C350.737 181.055 350.212 182.119 350.562 183.009C351.789 186.14 365.19 177.861 368.961 187.48C370.526 191.513 368.998 196.159 363.612 199.441L363.612 199.441Z" fill-rule="evenodd" fill="#FFCE4F"/>
	<path d="M347.293 221.021C347.869 220.069 345.702 219.029 344.964 217.902C344.225 216.775 342.784 213.581 343.511 213.318C344.225 213.056 345.126 213.056 345.752 212.993C346.379 212.931 347.205 212.191 346.754 211.828C346.291 211.452 344.274 211.34 343.322 211.502C342.984 211.565 342.233 211.94 341.77 212.116C341.056 212.379 340.329 212.417 339.678 212.166C339.415 211.289 339.152 210.312 338.914 209.799C338.012 209.398 333.967 209.925 333.754 212.003C333.967 213.443 334.506 215.247 334.506 215.247C336.685 221.134 339.189 222.198 340.191 222.699C341.193 223.2 341.945 222.236 341.945 222.236C342.972 222.486 343.436 221.622 343.436 221.622C345.039 221.998 345.326 220.946 345.326 220.946C345.326 220.946 346.717 221.973 347.293 221.021L347.293 221.021Z" fill-rule="evenodd" fill="#FDA893"/>
	<path d="M335.194 158.674C333.479 171.799 332.539 180.354 332.151 182.971C332.126 183.097 332.113 183.222 332.101 183.322C332.063 183.572 332.038 183.697 332.038 183.697L330.06 184.361L329.709 184.475L325.024 186.052C324.949 185.839 324.887 185.614 324.824 185.376C322.345 176.509 327.267 151.66 327.267 151.66C332.427 149.343 335.194 158.674 335.194 158.674Z" fill-rule="evenodd" fill="#7742CA"/>
	<path d="M339.452 210.688C337.323 212.303 335.457 213.005 333.754 213.117C328.794 201.457 325.738 193.679 324.799 185.375L327.917 184.649L328.994 184.398L332.038 183.685C332.038 183.685 332.075 183.797 332.139 183.998C332.176 184.11 332.226 184.261 332.288 184.448C332.89 186.353 334.556 191.788 335.971 197.574C337.699 204.713 339.452 210.688 339.452 210.688Z" fill-rule="evenodd" fill="#7742CA"/>
	<path d="M332.025 183.686C332.025 183.686 332.063 183.798 332.126 183.998C331.237 184.148 330.373 184.324 329.696 184.475C328.944 184.637 328.419 184.774 328.394 184.774C328.356 184.787 328.306 184.787 328.269 184.787C328.131 184.787 328.006 184.737 327.905 184.637C327.843 184.574 327.793 184.499 327.768 184.399C327.692 184.124 327.867 183.848 328.131 183.785C328.256 183.761 330.147 183.271 332.126 182.946C332.101 183.071 332.089 183.197 332.076 183.297C332.051 183.56 332.025 183.686 332.025 183.686Z" fill-rule="evenodd" fill="#5C17B2"/>
	<path d="M388.099 195.12L389.401 194.744C389.401 194.744 390.642 191.876 389.814 190.887C389.514 190.523 389.051 190.485 388.662 190.661L388.099 195.12Z" fill-rule="evenodd" fill="#FD896B"/>
	<path d="M392.52 199.792C393.559 198.728 393.885 197.124 393.233 195.784C392.883 195.07 392.257 194.406 391.167 193.993C387.873 192.753 384.842 192.815 384.604 194.281C384.517 194.832 386.157 195.959 387.71 196.31C387.71 196.31 385.894 196.135 384.178 195.408C382.462 194.682 381.799 196.986 383.953 197.913C386.106 198.84 386.521 198.84 386.521 198.84C386.521 198.84 384.517 198.627 383.539 198.051C382.562 197.487 381.735 199.078 383.715 200.093C384.629 200.568 385.681 201.106 385.681 201.106C385.681 201.106 384.229 200.631 383.464 200.393C382.7 200.155 381.711 200.693 382.926 201.809C383.878 202.685 386.633 204.877 388.136 203.85C389.163 203.136 391.279 201.057 392.52 199.792L392.52 199.792Z" fill-rule="evenodd" fill="#FDA893"/>
	<rect x="211.338867" y="147.952148" width="39.790539" height="170.496887" fill="#656565"/>
	<path d="M211.339 273.486C225.441 269.128 238.655 261.325 251.13 252.934L251.13 318.449L211.339 318.449L211.339 273.486Z" fill-rule="evenodd" fill="#656565"/>
	<rect x="146.298828" y="195.333008" width="39.790539" height="123.116463" fill="#656565"/>
	<path d="M178.725 276.367C181.205 276.729 183.659 276.942 186.09 277.043L186.09 318.449L146.299 318.449L146.299 277.432C153.338 275.114 163.646 274.175 178.725 276.367L178.725 276.367Z" fill-rule="evenodd" fill="#656565"/>
	<rect x="276.367188" y="97.014648" width="39.790539" height="221.434296" fill="#656565"/>
	<path d="M316.158 218.378L316.158 318.449L276.367 318.449L276.367 235.361C290.52 225.768 303.695 218.328 316.158 218.378L316.158 218.378Z" fill-rule="evenodd" fill="#656565"/>
	<path d="M314.555 32.4639L278.646 40.166L288.29 49.6221L233.308 105.67L214.02 86.7451L145.798 156.294C143.193 158.949 143.23 163.208 145.886 165.812C148.541 168.418 152.8 168.381 155.404 165.726L214.207 105.782L233.495 124.707L297.896 59.0537L307.54 68.5098L314.555 32.4639Z" fill-rule="evenodd" fill="#FFAC00"/>
	<path d="M127.25 320.216L91.7051 320.216C91.7051 318.387 92.4443 316.746 93.6338 315.544C94.8232 314.342 96.4766 313.615 98.3057 313.615C98.3057 313.615 105.908 312.626 105.908 306.464L105.908 269.704L113.034 269.704L113.034 306.464C113.034 312.626 120.574 313.615 120.574 313.615C124.231 313.603 127.25 316.559 127.25 320.216L127.25 320.216Z" fill-rule="evenodd" fill="#6E6D6D"/>
	<path d="M113.033 269.704L113.033 271.157L105.907 273.273L105.907 269.704L113.033 269.704Z" fill-rule="evenodd" fill="#4A0681"/>
	<path d="M143.657 269.703L75.2852 269.703C76.4121 263.466 81.8604 258.932 88.1982 258.957L109.465 259.02L130.731 258.957C137.094 258.932 142.529 263.453 143.657 269.703L143.657 269.703Z" fill-rule="evenodd" fill="#848181"/>
	<path d="M99.0186 189.709C97.2275 196.31 88.2354 213.506 84.7275 215.974C80.1816 219.18 65.916 225.204 58.4893 228.272C57.1484 228.823 62.1211 234.685 62.1211 234.685C62.1211 234.685 81.3086 229.801 89.1367 224.815C91.3535 223.4 96.1377 218.604 102.212 208.997C104.054 206.079 108.312 200.293 108.788 196.159C109.313 191.388 103.953 188.119 99.0186 189.709L99.0186 189.709Z" fill-rule="evenodd" fill="#FA8A00"/>
	<path d="M77.5762 304.234L77.8271 311.411C77.8271 311.411 76.0488 312.726 72.3789 312.075L70.876 304.347L77.5762 304.234Z" fill-rule="evenodd" fill="#FDA893"/>
	<path d="M74.0449 312.012C74.0449 312.012 72.918 310.446 71.9912 310.496C71.0771 310.547 63.9131 316.069 61.4834 316.508C59.0537 316.934 59.166 319.965 60.1309 320.303C61.2197 320.691 79.1934 320.354 79.1934 320.354C79.1934 320.354 79.8818 313.953 79.2803 312.225C78.6924 310.509 75.9365 312.45 74.0449 312.012L74.0449 312.012Z" fill-rule="evenodd" fill="#5C17B2"/>
	<path d="M96.3516 243.026C96.3516 243.026 68.5596 238.442 60.2061 243.665C53.8809 247.623 70.0498 305.712 70.0498 305.712C72.9561 306.613 76.9639 306.188 78.7168 305.073C78.7168 305.073 81.2471 297.32 78.8926 277.331C78.5791 274.676 78.8926 268.614 76.0615 257.881L97.2158 248.537L96.3516 243.026Z" fill-rule="evenodd" fill="#1D1A45"/>
	<path d="M68.6719 301.741C68.6719 301.741 68.96 305.249 69.4482 306.438C69.4482 306.438 77.4014 307.841 80.0195 304.71L79.668 301.203C79.6807 301.203 73.0801 302.618 68.6719 301.741L68.6719 301.741Z" fill-rule="evenodd" fill="#2E3062"/>
	<path d="M121.1 181.293C121.1 181.293 128.803 183.811 132.923 187.417C137.044 191.037 133.6 201.82 133.699 207.945C133.8 214.069 132.785 249.64 124.018 254.098C117.393 257.467 89.4883 252.345 91.5293 243.252C92.8818 237.202 95.4619 226.093 97.2402 211.051C98.418 201.132 97.917 193.805 99.0312 189.685C100.134 185.563 113.034 180.842 113.034 180.842L121.1 181.293Z" fill-rule="evenodd" fill="#FFAC00"/>
	<path d="M118.832 236.626C118.97 236.626 119.096 236.514 119.107 236.376C119.12 236.226 119.021 236.075 118.857 236.062C108.487 234.873 104.191 216.913 104.141 216.725C104.104 216.574 103.953 216.475 103.803 216.512C103.652 216.55 103.553 216.699 103.59 216.85C103.766 217.602 108.062 235.387 118.832 236.626L118.832 236.626Z" fill-rule="evenodd" fill="#FA8A00"/>
	<path d="M114.699 231.191C114.8 231.191 114.888 231.141 114.938 231.054C115.025 230.916 114.975 230.74 114.85 230.665C109.326 227.259 108.513 222.249 108.5 222.198C108.475 222.048 108.337 221.936 108.174 221.961C108.023 221.985 107.911 222.123 107.937 222.286C107.974 222.499 108.788 227.609 114.549 231.153C114.6 231.179 114.649 231.191 114.699 231.191L114.699 231.191Z" fill-rule="evenodd" fill="#FA8A00"/>
	<path d="M105.606 225.817L109.364 236.113L116.152 226.331L116.69 195.02L116.703 193.504L114.912 193.179L114.587 195.208L105.606 225.817Z" fill-rule="evenodd" fill="#FFFFFF"/>
	<path d="M114.587 195.208L115.413 196.322L116.691 195.02L116.703 193.504L114.912 193.179L114.587 195.208Z" fill-rule="evenodd" fill="#EDEDED"/>
	<path d="M119.297 191.5L115.715 195.045L113.185 191.412L116.278 185.852L119.297 191.5Z" fill-rule="evenodd" fill="#FFFFFF"/>
	<path d="M121.149 180.767L122.202 181.581C122.49 181.806 122.777 182.031 123.041 182.295C123.843 183.059 124.118 183.572 123.854 184.85C123.817 185.05 123.768 185.213 123.717 185.351L121.3 195.183L116.077 185.538C116.064 185.526 119.947 185.2 121.149 180.767L121.149 180.767Z" fill-rule="evenodd" fill="#FA8A00"/>
	<path d="M112.521 180.554C112.521 180.554 109.089 183.873 109.765 186.941L112.157 193.316L116.277 185.852C116.277 185.852 113.047 184.587 112.521 180.554L112.521 180.554Z" fill-rule="evenodd" fill="#FA8A00"/>
	<path d="M103.164 164.598C104.254 170.785 110.153 174.905 116.34 173.815C122.527 172.726 126.647 166.827 125.559 160.64C124.469 154.453 118.569 150.332 112.383 151.422C106.195 152.512 102.062 158.41 103.164 164.598L103.164 164.598Z" fill-rule="evenodd" fill="#1D1A45"/>
	<path d="M102.989 162.556C102.989 162.556 99.6699 162.242 99.5449 159.086C99.4316 156.406 102.813 157.559 102.175 155.555C101.549 153.551 100.609 151.797 103.164 150.82C105.406 149.969 105.72 151.547 108.35 148.703C111.456 145.347 115.338 151.158 118.569 150.782C123.342 150.231 124.419 152.799 125.258 154.854C126.097 156.907 124.544 158.735 124.544 158.735L102.989 162.556Z" fill-rule="evenodd" fill="#1D1A45"/>
	<path d="M105.595 167.391C105.595 167.391 103.402 165.337 102.426 167.528C101.449 169.721 104.342 175.156 107.311 173.178L105.595 167.391Z" fill-rule="evenodd" fill="#FD896B"/>
	<path d="M106.296 171.523C106.171 171.549 106.059 171.485 105.996 171.373C105.182 169.683 103.203 169.281 103.19 169.281C103.04 169.257 102.939 169.106 102.965 168.956C102.99 168.806 103.14 168.705 103.29 168.73C103.378 168.743 105.558 169.182 106.497 171.123C106.56 171.261 106.434 171.448 106.296 171.523L106.296 171.523Z" fill-rule="evenodd" fill="#D65C48"/>
	<path d="M104.279 170.96C104.229 170.973 104.179 170.96 104.129 170.947C103.991 170.885 103.916 170.722 103.979 170.584C103.991 170.559 104.229 170.008 104.855 169.582C104.98 169.494 105.155 169.532 105.243 169.657C105.331 169.782 105.293 169.958 105.168 170.045C104.68 170.371 104.492 170.81 104.492 170.81C104.441 170.885 104.366 170.935 104.279 170.96L104.279 170.96Z" fill-rule="evenodd" fill="#D65C48"/>
	<path d="M120.361 175.933L121.376 181.669C121.376 181.669 120.336 185.426 116.979 185.864C114.688 186.165 113.009 183.348 113.009 183.348L112.032 177.824L120.361 175.933Z" fill-rule="evenodd" fill="#FDA893"/>
	<path d="M120.361 175.933L120.812 178.476C119.56 180.479 116.88 181.394 112.696 181.506L112.045 177.812L120.361 175.933Z" fill-rule="evenodd" fill="#FD896B"/>
	<path d="M123.806 160.114C124.094 162.369 124.369 165.187 124.344 167.504C124.331 168.08 124.307 168.618 124.256 169.119C123.793 173.565 122.052 181.355 113.06 179.828C109.089 179.151 106.622 175.294 105.094 171.198C104.066 168.418 103.466 165.524 103.14 163.445C102.802 161.316 103.616 159.175 105.281 157.81C109.778 154.09 115.226 154.215 118.934 154.941C121.514 155.43 123.479 157.521 123.806 160.114L123.806 160.114Z" fill-rule="evenodd" fill="#FDA893"/>
	<path d="M109.979 167.391C110.091 168.005 109.854 168.556 109.465 168.631C109.077 168.706 108.676 168.255 108.563 167.642C108.45 167.027 108.688 166.477 109.077 166.401C109.465 166.339 109.866 166.777 109.979 167.391L109.979 167.391Z" fill-rule="evenodd" fill="#1D1A45"/>
	<path d="M118.244 165.938C118.356 166.552 118.119 167.103 117.73 167.178C117.343 167.24 116.941 166.803 116.829 166.188C116.716 165.575 116.954 165.023 117.343 164.948C117.73 164.873 118.132 165.324 118.244 165.938L118.244 165.938Z" fill-rule="evenodd" fill="#1D1A45"/>
	<path d="M106.37 164.51C106.37 164.51 109.101 162.831 111.53 163.407L111.53 164.484C111.53 164.484 108.988 164.372 106.746 165.687C106.521 165.236 106.271 165.048 106.37 164.51L106.37 164.51Z" fill-rule="evenodd" fill="#1D1A45"/>
	<path d="M119.81 162.143C119.81 162.143 116.666 161.504 114.574 162.882L114.95 163.896C114.95 163.896 117.305 162.92 119.859 163.383C119.935 162.869 120.098 162.606 119.81 162.143L119.81 162.143Z" fill-rule="evenodd" fill="#1D1A45"/>
	<path d="M114.662 171.073C115.126 170.985 115.552 170.735 115.614 170.685C115.739 170.598 115.776 170.435 115.702 170.31C115.627 170.184 115.451 170.146 115.326 170.222C115.101 170.359 114.537 170.622 114.249 170.522C114.198 170.497 114.111 170.459 114.073 170.297C113.811 169.357 113.497 166.126 113.497 166.088C113.484 165.938 113.347 165.825 113.196 165.838C113.047 165.851 112.934 165.988 112.946 166.139C112.959 166.276 113.26 169.457 113.535 170.447C113.635 170.822 113.873 170.973 114.049 171.048C114.236 171.11 114.449 171.11 114.662 171.073L114.662 171.073Z" fill-rule="evenodd" fill="#FD896B"/>
	<path d="M111.519 173.34C111.944 174.417 113.047 176.358 115.539 175.907C118.044 175.469 118.407 173.452 118.42 172.112L111.519 173.34Z" fill-rule="evenodd" fill="#FFFFFF"/>
	<path d="M115.765 177.348C116.466 177.223 117.005 176.759 117.029 176.734C117.143 176.634 117.155 176.459 117.055 176.346C116.954 176.233 116.779 176.221 116.666 176.321C116.666 176.321 116.216 176.696 115.677 176.797C115.176 176.885 114.638 176.685 114.638 176.685C114.5 176.621 114.337 176.696 114.274 176.834C114.212 176.972 114.287 177.135 114.425 177.197C114.449 177.21 115.101 177.461 115.765 177.348L115.765 177.348Z" fill-rule="evenodd" fill="#FD896B"/>
	<path d="M105.632 169.27C105.23 168.18 104.768 166.765 104.78 166.001C104.817 164.636 105.77 163.671 105.181 162.469C104.592 161.254 105.694 159.65 106.646 159.25C107.598 158.849 109.99 158.924 112.069 157.446C114.061 156.031 117.956 156.106 118.82 157.384C119.859 158.937 118.883 159.274 121.225 160.74C122.164 161.329 121.538 163.383 121.613 164.636C121.65 165.212 121.688 165.487 121.826 166.088L121.889 166.389L124.318 165.963C124.256 164.009 124.03 161.88 123.805 160.114C123.479 157.521 121.513 155.43 118.945 154.929C115.238 154.202 109.79 154.077 105.293 157.797C103.641 159.162 102.826 161.304 103.151 163.433C103.415 165.086 103.841 167.24 104.517 169.457L105.632 169.27Z" fill-rule="evenodd" fill="#1D1A45"/>
	<path d="M123.429 167.202C123.304 166.563 123.241 165.925 123.241 165.273C123.241 164.396 123.354 163.57 124.168 163.057C124.819 162.644 125.57 162.506 126.247 163.207C127.913 164.923 127.512 171.272 124.043 170.434L123.429 167.202Z" fill-rule="evenodd" fill="#FDA893"/>
	<path d="M124.356 168.555C124.469 168.505 124.544 168.393 124.531 168.268C124.344 166.401 125.821 165.036 125.847 165.023C125.959 164.923 125.972 164.748 125.871 164.635C125.771 164.522 125.596 164.51 125.483 164.61C125.408 164.673 123.78 166.176 123.993 168.33C124.005 168.48 124.206 168.567 124.356 168.555L124.356 168.555Z" fill-rule="evenodd" fill="#FD896B"/>
	<path d="M125.784 167.015C125.834 167.003 125.872 166.965 125.909 166.915C125.997 166.79 125.972 166.614 125.847 166.526C125.821 166.514 125.333 166.163 124.569 166.126C124.419 166.113 124.281 166.238 124.281 166.389C124.269 166.539 124.394 166.677 124.544 166.677C125.133 166.702 125.521 166.978 125.521 166.978C125.608 167.04 125.696 167.053 125.784 167.015L125.784 167.015Z" fill-rule="evenodd" fill="#FD896B"/>
	<path d="M93.1445 304.234L93.7461 312.263C93.7461 312.263 91.6172 312.738 87.9473 312.075L86.4443 304.347L93.1445 304.234Z" fill-rule="evenodd" fill="#FDA893"/>
	<path d="M89.4121 312.012C89.4121 312.012 88.2852 310.446 87.3584 310.496C86.4316 310.547 79.2803 316.069 76.8506 316.508C74.4209 316.934 74.5332 319.965 75.498 320.303C76.5869 320.691 94.5605 320.354 94.5605 320.354C94.5605 320.354 95.249 313.953 94.6475 312.225C94.0596 310.509 91.3037 312.45 89.4121 312.012L89.4121 312.012Z" fill-rule="evenodd" fill="#7742CA"/>
	<path d="M129.88 243.69C129.88 243.69 81.6855 241.035 73.4062 243.665C66.293 245.92 85.7432 306.163 85.7432 306.163C88.6484 307.064 92.6816 305.812 94.2598 304.234C94.2598 304.234 95.7383 300.64 93.3828 280.65C93.0703 277.995 92.7441 269.717 89.9141 258.983L121.889 259.146C128.74 259.146 130.907 253.372 130.181 246.559L129.88 243.69Z" fill-rule="evenodd" fill="#2E3062"/>
	<path d="M84.3027 303.732C84.3027 303.732 84.6787 306.275 85.2676 307.428C85.2676 307.428 91.1162 308.441 95.4375 305.273L95.0742 301.666C95.0859 301.666 89.1875 303.695 84.3027 303.732L84.3027 303.732Z" fill-rule="evenodd" fill="#524E86"/>
	<path d="M83.4512 228.911C83.4512 228.911 76.1992 230.139 73.168 232.669C70.1377 235.198 66.0791 237.365 66.6934 238.681C67.2939 239.982 71.5654 237.215 71.5654 237.215C71.5654 237.215 72.5801 239.569 76.0869 240.597C79.5811 241.624 87.0703 235.6 87.0703 235.6L83.4512 228.911Z" fill-rule="evenodd" fill="#FDA893"/>
	<path d="M131.282 186.152C127.237 192.289 111.744 213.493 108.25 215.961C103.703 219.167 90.9658 225.83 83.5518 228.911C82.2109 229.462 86.5195 235.774 86.5195 235.774C86.5195 235.774 104.831 229.801 112.646 224.803C114.863 223.388 124.056 214.183 129.917 206.004C131.921 203.198 135.19 199.315 135.666 195.183C136.205 190.423 134.714 187.881 131.282 186.152L131.282 186.152Z" fill-rule="evenodd" fill="#FA8A00"/>
	<path d="M93.9844 243.665L56.5859 243.665C55.7842 243.665 55.1455 243.026 55.1455 242.225L55.1455 239.857C55.1455 239.056 55.7842 238.417 56.5859 238.417L93.9844 238.417C94.7861 238.417 95.4248 239.056 95.4248 239.857L95.4248 242.225C95.4375 243.014 94.7861 243.665 93.9844 243.665L93.9844 243.665Z" fill-rule="evenodd" fill="#5C17B2"/>
	<path d="M48.3691 243.665L40.1787 212.967C39.7148 211.238 41.0176 209.548 42.7959 209.548L60.8311 209.548C62.0459 209.548 63.1104 210.362 63.4492 211.526L72.4795 243.652L48.3691 243.665Z" fill-rule="evenodd" fill="#7742CA"/>
	<path d="M63.4482 211.539L72.4033 243.402L74.4707 243.402L65.5156 211.539C65.1895 210.362 64.1123 209.561 62.8975 209.561L60.8311 209.561C62.0586 209.548 63.123 210.362 63.4482 211.539L63.4482 211.539Z" fill-rule="evenodd" fill="#5C17B2"/>
	<path d="M58.8145 227.984C59.2783 230.013 58.0254 231.654 55.9971 231.654C53.9678 231.654 51.9512 230.013 51.4883 227.984C51.0244 225.955 52.2773 224.314 54.3057 224.314C56.3223 224.314 58.3516 225.955 58.8145 227.984L58.8145 227.984Z" fill-rule="evenodd" fill="#906ADD"/>
	<path d="M128.126 71.6406C125.445 71.6406 123.254 69.4609 123.254 66.7686C123.254 64.0879 125.434 61.8965 128.126 61.8965C130.807 61.8965 132.998 64.0762 132.998 66.7686C132.985 69.4492 130.807 71.6406 128.126 71.6406L128.126 71.6406M128.126 70.1123C129.967 70.1123 131.47 68.6094 131.47 66.7686C131.47 64.9277 129.967 63.4248 128.126 63.4248C126.285 63.4248 124.782 64.9277 124.782 66.7686C124.782 68.6094 126.285 70.1123 128.126 70.1123L128.126 70.1123Z" fill-rule="evenodd" fill="#FFAC00"/>
	<path d="M145.849 87.709C143.168 87.709 140.977 85.5293 140.977 82.8369C140.977 80.1562 143.156 77.9648 145.849 77.9648C148.529 77.9648 150.721 80.1445 150.721 82.8369C150.721 85.5293 148.529 87.709 145.849 87.709L145.849 87.709M145.849 86.1807C147.689 86.1807 149.192 84.6777 149.192 82.8369C149.192 80.9961 147.689 79.4932 145.849 79.4932C144.008 79.4932 142.505 80.9961 142.505 82.8369C142.505 84.6904 144.008 86.1807 145.849 86.1807L145.849 86.1807Z" fill-rule="evenodd" fill="#7742CA"/>
	<path d="M152.273 59.8916C152.273 59.4658 151.935 59.1279 151.509 59.1279L148.14 59.1279C147.714 59.1279 147.376 59.4658 147.376 59.8916C147.376 60.3174 147.714 60.6562 148.14 60.6562L151.509 60.6562C151.935 60.6562 152.273 60.3057 152.273 59.8916L152.273 59.8916Z" fill-rule="evenodd" fill="#FFAC00"/>
	<path d="M158.16 59.8916C158.16 59.4658 157.821 59.1279 157.396 59.1279L154.026 59.1279C153.601 59.1279 153.263 59.4658 153.263 59.8916C153.263 60.3174 153.601 60.6562 154.026 60.6562L157.396 60.6562C157.821 60.6562 158.16 60.3057 158.16 59.8916L158.16 59.8916Z" fill-rule="evenodd" fill="#FFAC00"/>
	<path d="M153.538 64.6143L153.538 61.583C153.538 61.1572 153.199 60.8193 152.773 60.8193C152.348 60.8193 152.01 61.1572 152.01 61.583L152.01 64.6143C152.01 65.04 152.348 65.3779 152.773 65.3779C153.199 65.3779 153.538 65.04 153.538 64.6143L153.538 64.6143Z" fill-rule="evenodd" fill="#FFAC00"/>
	<path d="M153.538 58.1885L153.538 55.1572C153.538 54.7314 153.199 54.3936 152.773 54.3936C152.348 54.3936 152.01 54.7314 152.01 55.1572L152.01 58.1885C152.01 58.6143 152.348 58.9521 152.773 58.9521C153.199 58.9521 153.538 58.6143 153.538 58.1885L153.538 58.1885Z" fill-rule="evenodd" fill="#FFAC00"/>
	<path d="M116.616 86.1807C116.616 85.7549 116.277 85.417 115.852 85.417L112.482 85.417C112.057 85.417 111.719 85.7549 111.719 86.1807C111.719 86.6064 112.057 86.9453 112.482 86.9453L115.852 86.9453C116.277 86.9453 116.616 86.6064 116.616 86.1807L116.616 86.1807Z" fill-rule="evenodd" fill="#7742CA"/>
	<path d="M122.503 86.1807C122.503 85.7549 122.164 85.417 121.738 85.417L118.369 85.417C117.943 85.417 117.605 85.7549 117.605 86.1807C117.605 86.6064 117.943 86.9453 118.369 86.9453L121.738 86.9453C122.164 86.9453 122.503 86.6064 122.503 86.1807L122.503 86.1807Z" fill-rule="evenodd" fill="#7742CA"/>
	<path d="M117.882 90.916L117.882 87.8848C117.882 87.459 117.543 87.1211 117.117 87.1211C116.691 87.1211 116.354 87.459 116.354 87.8848L116.354 90.916C116.354 91.3418 116.691 91.6797 117.117 91.6797C117.543 91.6797 117.882 91.3291 117.882 90.916L117.882 90.916Z" fill-rule="evenodd" fill="#7742CA"/>
	<path d="M117.882 84.4775L117.882 81.4463C117.882 81.0205 117.543 80.6826 117.117 80.6826C116.691 80.6826 116.354 81.0205 116.354 81.4463L116.354 84.4775C116.354 84.9033 116.691 85.2412 117.117 85.2412C117.543 85.2412 117.882 84.9033 117.882 84.4775L117.882 84.4775Z" fill-rule="evenodd" fill="#7742CA"/>
	<path d="M389.389 119.76C389.389 122.44 387.209 124.632 384.517 124.632C381.836 124.632 379.645 122.452 379.645 119.76C379.645 117.067 381.824 114.888 384.517 114.888C387.209 114.9 389.389 117.079 389.389 119.76L389.389 119.76M381.186 119.76C381.186 121.601 382.688 123.104 384.529 123.104C386.37 123.104 387.873 121.601 387.873 119.76C387.873 117.919 386.37 116.416 384.529 116.416C382.688 116.428 381.186 117.919 381.186 119.76L381.186 119.76Z" fill-rule="evenodd" fill="#FE9332"/>
	<path d="M407.123 103.69C407.123 106.371 404.943 108.562 402.251 108.562C399.57 108.562 397.379 106.383 397.379 103.69C397.379 100.998 399.559 98.8184 402.251 98.8184C404.932 98.8184 407.123 100.998 407.123 103.69L407.123 103.69M398.907 103.69C398.907 105.531 400.41 107.034 402.251 107.034C404.092 107.034 405.595 105.531 405.595 103.69C405.595 101.85 404.092 100.347 402.251 100.347C400.41 100.347 398.907 101.85 398.907 103.69L398.907 103.69Z" fill-rule="evenodd" fill="#FE9332"/>
	<path d="M408.677 126.636C408.677 127.062 408.338 127.4 407.912 127.4L404.543 127.4C404.117 127.4 403.779 127.062 403.779 126.636C403.779 126.21 404.117 125.872 404.543 125.872L407.912 125.872C408.325 125.872 408.677 126.223 408.677 126.636L408.677 126.636Z" fill-rule="evenodd" fill="#FE9332"/>
	<path d="M414.563 126.636C414.563 127.062 414.225 127.4 413.799 127.4L410.43 127.4C410.004 127.4 409.666 127.062 409.666 126.636C409.666 126.21 410.004 125.872 410.43 125.872L413.799 125.872C414.225 125.872 414.563 126.223 414.563 126.636L414.563 126.636Z" fill-rule="evenodd" fill="#FE9332"/>
	<path d="M409.941 121.914L409.941 124.945C409.941 125.371 409.603 125.709 409.177 125.709C408.751 125.709 408.413 125.371 408.413 124.945L408.413 121.914C408.413 121.488 408.751 121.15 409.177 121.15C409.603 121.15 409.941 121.488 409.941 121.914L409.941 121.914Z" fill-rule="evenodd" fill="#FE9332"/>
	<path d="M409.941 128.339L409.941 131.37C409.941 131.796 409.603 132.134 409.177 132.134C408.751 132.134 408.413 131.796 408.413 131.37L408.413 128.339C408.413 127.913 408.751 127.575 409.177 127.575C409.603 127.575 409.941 127.926 409.941 128.339L409.941 128.339Z" fill-rule="evenodd" fill="#FE9332"/>
	<path d="M373.02 100.347C373.02 100.772 372.681 101.111 372.255 101.111L368.886 101.111C368.46 101.111 368.122 100.772 368.122 100.347C368.122 99.9209 368.46 99.583 368.886 99.583L372.255 99.583C372.681 99.583 373.02 99.9209 373.02 100.347L373.02 100.347Z" fill-rule="evenodd" fill="#FE9332"/>
	<path d="M378.905 100.347C378.905 100.772 378.566 101.111 378.141 101.111L374.771 101.111C374.346 101.111 374.008 100.772 374.008 100.347C374.008 99.9209 374.346 99.583 374.771 99.583L378.141 99.583C378.566 99.583 378.905 99.9209 378.905 100.347L378.905 100.347Z" fill-rule="evenodd" fill="#FE9332"/>
	<path d="M374.284 95.625L374.284 98.6562C374.284 99.082 373.945 99.4199 373.52 99.4199C373.094 99.4199 372.756 99.082 372.756 98.6562L372.756 95.625C372.756 95.1992 373.094 94.8613 373.52 94.8613C373.945 94.8613 374.284 95.1992 374.284 95.625L374.284 95.625Z" fill-rule="evenodd" fill="#FE9332"/>
	<path d="M374.284 102.05L374.284 105.081C374.284 105.507 373.945 105.845 373.52 105.845C373.094 105.845 372.756 105.507 372.756 105.081L372.756 102.05C372.756 101.624 373.094 101.286 373.52 101.286C373.945 101.286 374.284 101.624 374.284 102.05L374.284 102.05Z" fill-rule="evenodd" fill="#FE9332"/>
	<defs/>
</svg>
